<svg xmlns="http://www.w3.org/2000/svg" viewBox="0 0 64 64" fill="none">
  <defs>
    <linearGradient id="bg" x1="8" y1="8" x2="56" y2="56" gradientUnits="userSpaceOnUse">
      <stop stop-color="#7C3AED"/>
      <stop offset="0.55" stop-color="#EC4899"/>
      <stop offset="1" stop-color="#06B6D4"/>
    </linearGradient>
    <filter id="glow" x="-50%" y="-50%" width="200%" height="200%">
      <feGaussianBlur stdDeviation="3" result="blur"/>
      <feMerge>
        <feMergeNode in="blur"/>
        <feMergeNode in="SourceGraphic"/>
      </feMerge>
    </filter>
  </defs>
  <rect x="6" y="6" width="52" height="52" rx="16" fill="#0F172A"/>
  <rect x="7.5" y="7.5" width="49" height="49" rx="14.5" stroke="url(#bg)" stroke-width="3"/>
  <rect x="10" y="10" width="44" height="44" rx="14" fill="url(#bg)" filter="url(#glow)"/>
  <path d="M24.2 40L28.9 24H35.1L39.8 40H35.7L34.8 36.8H29.2L28.3 40H24.2ZM30.1 33.5H33.9L32 27L30.1 33.5Z" fill="white"/>
  <path d="M45.5 32C45.5 37 41.8 40.4 36.9 40.4H33.8V36.9H36.7C39.4 36.9 41.3 35 41.3 32C41.3 29 39.4 27.1 36.7 27.1H33.8V23.6H36.9C41.8 23.6 45.5 27 45.5 32Z" fill="white"/>
</svg>
